<svg xmlns="http://www.w3.org/2000/svg" style="isolation:isolate" viewBox="0 0 128 128" width="128" height="128"><defs><clipPath id="a"><path d="M0 0h128v128H0z"/></clipPath></defs><g clip-path="url(#a)"><path d="M112.246 56L73.044 16.803h39.202V56z" fill="#FFCA20" opacity=".7"/><path d="M45.588 5.198H67.81l16.984 16.979H45.588V5.198z" fill="#FFCA20" opacity=".7"/><path d="M46.86 44.404L7.658 5.198h47.135v39.201l-7.933.005zm34.438 39.197l39.202 39.201H81.298V83.601z" fill="#FFCF39" opacity=".9"/><path d="M54.793 83.605L15.596 44.399h39.201v39.202l-.004.004zm42.217-19.84L65.759 32.496h31.265l-.014 31.269zm3.654 55.388L65.112 83.605h35.552v35.548z" fill="#FFE490" opacity=".7"/><path d="M54.793 36.425L23.566 5.198h31.227v31.227z" fill="#FCBC7C" opacity=".9"/><path d="M65.27 83.601l39.202 39.201H65.27V83.601z" fill="#F9A040" opacity=".8"/><path d="M104.947 99.252l-39.15-39.151h39.15v39.151z" fill="#F9A040" opacity=".7"/><path d="M65.759 32.496l38.727 38.726H65.759V32.496z" fill="#FFCF39" opacity=".9"/><path d="M54.793 122.649L7.5 75.347h47.293v47.302z" fill="#FFC737" opacity=".7"/></g></svg>